<?xml version="1.0" standalone="no"?>
<!DOCTYPE svg PUBLIC "-//W3C//DTD SVG 20010904//EN"
 "http://www.w3.org/TR/2001/REC-SVG-20010904/DTD/svg10.dtd">
<svg version="1.0" xmlns="http://www.w3.org/2000/svg"
 width="736.000000pt" height="736.000000pt" viewBox="0 0 736.000000 736.000000"
 preserveAspectRatio="xMidYMid meet">

<g transform="translate(0.000000,736.000000) scale(0.100000,-0.100000)"
fill="#000000" stroke="none">
<path d="M0 3680 l0 -3680 3680 0 3680 0 0 3680 0 3680 -3680 0 -3680 0 0
-3680z m5460 2638 c81 -42 165 -118 180 -163 22 -68 -20 -187 -89 -249 -12
-11 -21 -14 -21 -8 0 7 4 12 9 12 5 0 19 16 30 36 19 32 20 39 8 58 -17 26
-31 76 -28 96 2 8 -7 3 -19 -12 -35 -45 -51 -37 -74 36 -6 17 -8 18 -25 2 -9
-9 -20 -14 -23 -11 -5 6 -88 -84 -88 -95 0 -3 10 -5 23 -6 12 0 30 -4 39 -8
13 -6 17 -1 21 26 3 26 4 22 5 -15 2 -40 6 -50 22 -54 18 -5 20 -12 16 -64 -2
-33 -12 -73 -23 -92 -25 -43 -53 -144 -53 -193 0 -53 15 -72 111 -139 67 -47
85 -65 105 -108 14 -31 24 -71 24 -98 0 -46 -23 -119 -38 -119 -4 0 -17 -3
-29 -6 -16 -4 -30 2 -52 25 l-29 30 -11 -29 c-11 -34 -11 -33 -45 -20 -21 8
-26 6 -31 -10 -7 -22 -36 -26 -64 -8 -16 10 -34 6 -105 -26 -47 -21 -86 -42
-86 -47 0 -4 -9 -11 -20 -14 -11 -4 -34 -18 -50 -32 -17 -14 -33 -23 -36 -21
-6 6 49 70 124 146 38 38 55 63 59 89 6 36 6 36 -25 30 -24 -5 -34 -2 -41 11
-8 13 -4 22 17 39 l27 22 -30 1 c-29 0 -127 -49 -140 -70 -3 -5 -11 -10 -16
-10 -19 0 2 20 64 62 34 23 64 44 67 48 3 4 14 10 25 14 15 5 16 9 6 15 -10 7
-10 12 0 29 10 16 10 34 0 89 -6 37 -12 78 -13 90 0 17 -3 20 -12 10 -20 -20
-44 -80 -39 -94 3 -7 0 -13 -6 -13 -6 0 -11 -7 -11 -15 0 -50 -82 -155 -180
-232 -24 -19 -13 -3 31 47 37 41 81 99 99 129 31 50 33 59 34 150 0 84 -5 115
-42 245 -23 84 -42 171 -42 198 0 88 75 225 149 271 50 30 146 55 217 56 50 1
73 -5 124 -31z m465 -382 c26 -19 13 -46 -23 -46 -31 0 -68 32 -57 49 9 15 58
14 80 -3z m270 -59 c7 -27 -23 -114 -57 -163 -24 -35 -57 -45 -75 -21 -22 27
76 207 112 207 8 0 17 -10 20 -23z m-1814 -64 c59 -30 89 -68 117 -145 l17
-48 51 0 c111 0 227 -58 265 -132 12 -23 24 -67 26 -99 5 -49 2 -64 -23 -110
-35 -64 -102 -128 -152 -146 -34 -12 -123 -18 -94 -6 24 10 13 33 -17 33 -20
0 -30 -6 -34 -20 -3 -11 -10 -20 -16 -20 -18 0 -25 29 -13 53 15 32 9 93 -12
116 -27 29 -67 12 -89 -39 -23 -55 -22 -57 19 -21 19 17 40 28 46 25 7 -5 1
-15 -17 -30 -15 -12 -24 -27 -21 -33 4 -6 0 -18 -8 -27 -9 -8 -17 -27 -18 -42
-1 -15 -3 -36 -4 -47 -1 -11 -3 -63 -3 -115 -1 -65 -4 -90 -11 -80 -8 12 -10
12 -10 -5 1 -21 16 -147 25 -200 5 -30 5 -30 -12 5 -9 19 -15 40 -14 45 1 6
-3 5 -10 -2 -9 -9 -9 -19 0 -44 13 -38 14 -89 2 -108 -10 -15 -15 -8 -25 32
-14 59 -37 19 -33 -58 2 -36 0 -39 -24 -41 -26 -3 -28 1 -39 62 -11 57 -10 75
5 132 9 37 21 79 27 94 6 16 6 33 1 43 -8 13 -15 5 -36 -43 -15 -33 -27 -65
-27 -71 0 -6 -7 -11 -15 -11 -8 0 -15 5 -15 11 0 5 -4 8 -9 5 -6 -4 -5 -21 1
-43 6 -21 8 -60 5 -88 -6 -47 -5 -48 8 -25 l14 25 1 -25 c1 -98 94 -210 174
-210 30 0 33 4 97 168 85 214 116 249 220 254 72 3 108 -22 150 -105 17 -34
37 -73 45 -87 8 -14 14 -32 14 -41 0 -20 28 -89 36 -89 2 0 14 9 26 20 34 32
53 26 29 -9 -11 -15 -21 -41 -22 -57 -2 -17 27 -99 70 -199 47 -109 75 -189
78 -223 5 -48 3 -55 -22 -83 -32 -33 -29 -41 28 -59 20 -6 37 -15 37 -19 0 -4
-18 -24 -39 -45 -36 -35 -44 -38 -77 -33 -20 3 -66 21 -103 39 l-66 33 60 3
c48 2 63 7 77 25 10 12 18 25 18 28 0 3 -25 11 -56 18 -46 11 -59 18 -73 43
-9 17 -26 45 -38 64 -15 23 -17 31 -7 27 12 -5 13 -1 3 21 -7 14 -15 27 -18
27 -3 1 -70 3 -149 3 -107 2 -145 -1 -154 -11 -14 -18 -52 -86 -85 -155 -29
-59 -44 -68 -50 -30 -1 12 -11 30 -22 41 -17 17 -22 18 -46 5 -38 -20 -62 -17
-76 7 -19 36 -4 96 61 242 33 76 58 143 55 148 -4 5 -17 9 -29 9 -13 0 -29 7
-36 15 -7 8 -18 15 -24 16 -18 0 -83 92 -91 127 -14 64 -25 42 -25 -46 0 -86
1 -90 24 -96 31 -8 43 -36 16 -36 -15 0 -20 -7 -20 -26 0 -14 -4 -33 -9 -43
-5 -9 -10 -62 -12 -116 -3 -145 -12 -184 -48 -217 -21 -19 -42 -28 -66 -28
-38 0 -100 33 -115 60 -6 11 -10 161 -10 369 l0 351 -32 -19 c-18 -10 -38 -16
-43 -14 -6 2 -16 -16 -23 -39 -12 -46 -66 -118 -78 -106 -4 4 -1 15 6 23 7 9
9 15 4 14 -12 -4 -67 26 -83 45 -18 21 -34 10 -21 -14 5 -10 10 -27 10 -37 0
-13 -6 -9 -21 14 -65 101 -238 93 -289 -13 -24 -53 -43 -140 -34 -166 6 -19
34 -25 34 -8 0 6 4 10 9 10 5 0 4 -17 -1 -40 -11 -41 -22 -50 -32 -27 -3 6 -4
-8 -2 -32 13 -127 154 -178 306 -111 90 39 132 39 172 -1 29 -29 30 -33 24
-87 -5 -46 -12 -61 -34 -79 -15 -13 -31 -22 -37 -21 -5 1 -35 -7 -65 -17 -67
-24 -191 -25 -253 -2 -23 9 -66 18 -95 21 -62 7 -102 24 -152 65 -88 73 -91
79 -122 216 -39 175 -3 338 96 435 54 53 54 61 -3 77 -32 8 -105 -30 -120 -63
-6 -13 -16 -24 -22 -24 -20 0 -1 62 32 102 16 21 26 38 22 39 -4 1 -23 2 -41
4 -40 3 -44 7 -36 29 10 25 106 49 180 44 50 -3 80 -13 144 -46 78 -41 85 -43
157 -40 l76 3 -47 45 c-26 25 -68 76 -94 115 -63 94 -72 103 -72 73 0 -17 -3
-19 -9 -9 -5 7 -14 11 -20 7 -7 -5 -9 -1 -5 8 3 9 2 16 -4 16 -17 0 -32 60
-32 126 0 60 -2 64 -30 79 -16 8 -39 15 -52 15 -26 0 -61 21 -95 56 l-21 23 2
-87 c1 -83 3 -90 34 -127 37 -45 38 -52 16 -76 -16 -17 -17 -17 -34 3 -26 33
-43 15 -35 -38 6 -46 -4 -66 -67 -123 -16 -14 -28 -33 -28 -43 0 -10 -6 -18
-14 -18 -8 0 -24 -16 -35 -36 -12 -20 -24 -34 -27 -31 -10 10 7 47 36 79 96
104 126 187 83 229 l-20 21 -7 -32 c-5 -28 -8 -31 -21 -20 -8 7 -15 20 -15 30
0 10 -7 31 -15 46 -8 16 -15 38 -15 49 0 11 -7 29 -15 39 -8 11 -15 28 -15 38
0 13 -8 18 -30 18 -37 0 -39 -19 -5 -48 25 -22 25 -52 -1 -52 -8 0 -14 -6 -14
-14 0 -8 -5 -18 -11 -22 -6 -4 -10 1 -8 12 3 25 -11 93 -21 99 -3 2 -16 -3
-28 -11 -17 -12 -22 -25 -22 -63 0 -45 -4 -52 -59 -110 -47 -49 -64 -61 -90
-61 -36 0 -41 14 -8 25 15 6 -2 10 -58 15 -83 6 -135 27 -191 73 -92 76 -212
135 -303 148 -77 11 -88 17 -64 35 16 12 12 13 -37 14 -48 1 -52 3 -30 12 16
6 20 12 12 15 -22 8 7 33 39 33 16 0 29 5 29 10 0 6 -5 10 -10 10 -6 0 -9 4
-8 9 6 18 -44 49 -88 56 -98 14 -126 -11 -138 -124 -8 -85 -45 -165 -88 -191
-26 -16 -47 -20 -102 -18 -38 1 -74 7 -80 13 -24 24 -89 55 -113 55 -33 0 -85
-25 -100 -49 -17 -27 5 -102 57 -198 53 -97 63 -109 117 -133 37 -16 58 -18
141 -13 115 7 194 -10 270 -57 86 -53 100 -99 52 -178 -19 -30 -24 -33 -53
-27 -18 4 -61 20 -97 37 -117 53 -205 59 -230 14 -27 -51 9 -87 130 -130 148
-54 334 -155 316 -173 -3 -3 -12 0 -21 7 -24 20 -27 7 -9 -36 20 -47 14 -159
-12 -223 -22 -55 -106 -115 -189 -136 -57 -14 -217 -6 -295 15 -41 11 -87 22
-101 24 -39 8 -76 42 -90 83 -10 31 -9 41 6 69 25 47 78 70 127 55 21 -6 57
-17 81 -23 23 -7 48 -18 54 -25 7 -6 39 -15 70 -19 66 -8 98 5 123 49 30 54
-21 100 -144 132 -112 29 -246 118 -272 181 -8 18 -14 65 -14 103 0 62 3 74
33 117 19 27 58 66 87 87 29 20 47 37 40 37 -23 0 -82 51 -95 84 -8 17 -30 49
-50 71 -57 63 -99 159 -100 227 0 63 15 87 66 109 39 16 102 -2 139 -39 15
-15 39 -38 54 -51 l27 -24 60 18 c80 25 84 31 70 108 -7 34 -14 76 -17 94 -7
39 20 136 51 185 16 24 43 45 82 63 32 15 80 38 107 51 96 46 185 23 249 -63
41 -57 111 -200 110 -225 -1 -10 9 -26 23 -37 14 -11 43 -42 64 -69 22 -27 57
-58 77 -67 38 -18 116 -28 107 -14 -10 17 131 267 204 359 35 45 105 72 190
74 66 1 85 -3 132 -27 30 -15 69 -41 85 -56 73 -67 108 -156 41 -106 -18 14
-36 12 -36 -4 0 -5 15 -24 33 -43 17 -19 44 -49 59 -66 22 -26 81 -62 102 -62
2 0 7 12 11 28 7 28 54 107 92 155 30 38 107 70 168 70 104 0 169 -51 234
-183 62 -126 119 -158 180 -101 38 36 41 81 9 149 -30 65 -36 174 -12 260 14
53 26 75 63 112 57 56 91 68 207 69 80 1 97 -2 145 -26z m1552 -184 c80 -35
108 -55 105 -76 -2 -9 13 -20 37 -28 56 -20 105 -75 105 -119 0 -19 -5 -47
-10 -62 -6 -15 -8 -29 -5 -32 3 -3 35 -9 71 -14 37 -4 73 -13 80 -19 8 -6 14
-9 14 -5 0 18 62 -30 105 -81 64 -77 93 -143 101 -230 6 -63 4 -76 -20 -129
-29 -63 -132 -171 -190 -201 -35 -17 -32 -14 39 44 28 23 58 56 69 75 l18 33
-32 -38 c-17 -21 -59 -56 -93 -79 -55 -37 -135 -108 -123 -108 3 0 -11 -23
-30 -51 -54 -80 -44 -129 26 -129 65 0 181 -104 194 -173 7 -36 19 -47 31 -28
3 5 19 12 35 16 17 4 30 11 30 16 0 25 114 0 142 -32 9 -11 23 -16 32 -13 13
5 13 0 5 -31 -6 -21 -9 -72 -6 -114 4 -73 6 -76 28 -74 70 4 111 13 134 30 33
24 29 57 -7 61 -16 2 -28 8 -28 13 0 6 -9 7 -20 4 -42 -13 -22 11 58 69 28 21
52 40 52 43 0 3 -22 3 -50 1 -34 -4 -50 -1 -50 7 0 13 53 55 70 55 5 0 10 8
10 17 0 13 -3 14 -12 5 -7 -7 -21 -12 -31 -12 -11 0 -44 -14 -73 -31 -64 -36
-75 -19 -19 30 53 46 93 63 160 69 83 6 113 -9 229 -122 115 -110 134 -150
143 -296 l5 -95 -40 -79 c-47 -90 -100 -163 -123 -171 -9 -3 -40 -28 -68 -55
-58 -56 -95 -64 -154 -34 -41 21 -120 85 -113 92 3 2 14 -1 23 -9 15 -11 14
-9 -1 9 -11 12 -26 20 -33 18 -7 -3 -13 1 -13 9 0 19 2 19 48 -5 21 -11 60
-24 87 -29 45 -9 52 -8 67 10 13 16 15 26 8 40 -8 14 -6 25 6 44 15 24 15 25
-17 44 -34 21 -46 50 -26 63 6 4 -1 10 -19 14 -16 4 -39 18 -51 31 -12 12 -26
23 -31 23 -4 0 -18 9 -29 19 -12 11 -46 27 -76 36 -31 9 -83 34 -118 56 -64
42 -84 40 -74 -6 3 -13 -7 -34 -29 -60 l-35 -39 -6 25 c-5 21 -11 25 -31 21
-15 -3 -24 0 -24 8 0 6 -16 -4 -35 -24 -48 -49 -71 -50 -39 -1 16 25 15 39
-14 112 -26 65 -95 84 -193 53 -76 -25 -89 -35 -89 -70 0 -15 -7 -33 -15 -40
-18 -15 -20 -34 -2 -23 21 13 67 12 67 -3 0 -7 -4 -16 -10 -19 -5 -3 -19 -26
-30 -52 -21 -48 -27 -98 -10 -88 6 3 10 15 10 26 0 10 5 19 10 19 6 0 10 -11
10 -24 0 -19 10 -29 43 -45 41 -20 46 -20 93 -6 27 8 58 21 69 29 29 22 41 19
20 -4 -23 -25 -14 -25 35 0 22 11 40 18 40 16 0 -16 -57 -57 -93 -67 -23 -7
-63 -28 -88 -46 -26 -18 -71 -45 -100 -59 -84 -40 -101 -51 -91 -58 5 -3 34 1
63 9 49 12 57 12 88 -3 54 -26 75 -63 78 -135 4 -112 4 -110 47 -119 52 -11
113 -46 119 -69 3 -11 -4 -24 -17 -33 -18 -13 -19 -17 -6 -26 32 -22 62 -23
99 -2 53 30 75 74 75 151 l1 65 49 25 c52 27 48 40 -7 22 -40 -14 -120 -79
-111 -92 3 -5 1 -9 -4 -9 -43 0 12 69 82 103 71 35 147 51 202 42 35 -5 57
-18 104 -61 170 -158 196 -438 53 -580 -44 -44 -77 -61 -138 -69 l-50 -6 24
20 c14 13 18 21 10 21 -8 1 -3 7 11 15 l25 14 -26 1 c-41 0 -54 23 -33 56 10
15 17 39 16 55 -1 15 11 51 28 82 50 92 36 176 -37 211 -35 17 -63 21 -63 9 0
-4 11 -18 24 -32 45 -49 58 -128 31 -181 -18 -36 -45 -40 -45 -7 0 12 -4 28
-9 36 -8 12 -13 12 -35 -2 -36 -24 -53 -21 -71 13 l-16 30 -107 1 c-123 1
-128 1 -202 23 -109 32 -177 40 -242 28 -64 -12 -113 -37 -103 -52 4 -6 -20
-35 -52 -65 l-57 -55 35 -72 35 -71 26 28 c29 30 48 19 30 -18 -5 -12 -14 -34
-20 -49 -8 -20 -16 -26 -29 -22 -15 5 -15 4 -3 -5 12 -8 12 -13 2 -23 -9 -9
-12 -9 -12 3 0 8 -3 10 -8 4 -40 -55 -92 -65 -92 -19 0 21 -5 24 -35 24 -19 0
-35 5 -35 10 0 6 -4 10 -10 10 -5 0 -10 -13 -10 -30 0 -52 -16 -33 -48 61 -29
83 -59 129 -85 129 -5 0 -3 -8 4 -17 11 -13 11 -15 1 -9 -8 5 -55 7 -105 6
-162 -5 -150 -3 -130 -18 16 -12 14 -13 -16 -10 -32 3 -37 -1 -58 -37 -13 -22
-32 -65 -43 -95 -12 -30 -30 -67 -41 -82 -11 -16 -16 -28 -11 -28 13 0 9 -113
-5 -128 -7 -7 -13 -28 -13 -45 0 -18 -7 -45 -16 -62 -8 -16 -29 -62 -45 -102
-17 -40 -44 -91 -60 -115 l-30 -43 43 47 c24 26 58 75 76 110 22 42 31 53 27
33 -21 -96 -161 -245 -230 -245 -25 0 -31 11 -37 70 -3 23 -7 25 -45 22 -23
-2 -51 2 -63 8 -18 10 -24 8 -35 -7 -13 -17 -15 -16 -28 17 -31 72 -26 149 12
189 38 41 56 40 31 -2 -24 -39 -26 -73 -3 -81 11 -5 23 1 35 16 10 13 18 26
18 29 0 6 94 69 104 69 3 0 6 -9 6 -20 0 -11 -4 -20 -10 -20 -5 0 -10 -8 -10
-19 0 -21 -23 -45 -33 -34 -4 3 -7 -2 -7 -11 0 -27 49 -12 77 22 28 34 29 23
3 -29 -25 -49 -62 -66 -105 -49 -55 22 -65 23 -65 8 0 -8 9 -24 20 -36 26 -28
79 -29 137 -3 54 25 73 62 73 143 -1 112 -64 206 -160 238 -44 15 -51 20 -35
26 11 4 27 16 36 27 15 19 21 20 58 9 53 -16 100 -57 122 -107 10 -22 19 -35
19 -29 0 25 -24 81 -52 119 -25 34 -23 33 17 -10 47 -51 84 -131 87 -188 0
-18 4 -3 8 33 4 44 2 78 -7 105 -17 53 -16 58 7 45 11 -6 20 -7 20 -3 0 5 10
13 23 18 26 12 35 54 15 69 -8 6 -17 18 -20 26 -5 12 -7 12 -13 -4 -4 -10 -4
-21 1 -25 13 -9 17 -41 4 -41 -5 0 -10 5 -10 11 0 6 -8 18 -17 27 -16 16 -16
16 -10 0 4 -12 2 -18 -9 -18 -8 0 -17 7 -21 16 -4 10 -13 14 -28 10 -52 -13
-54 46 -3 147 15 31 37 80 49 108 37 95 200 443 241 516 48 85 71 98 171 98
60 0 71 -3 88 -24 10 -13 19 -30 19 -37 0 -12 57 -149 132 -316 l21 -46 34 31
c47 44 118 83 181 103 28 8 52 18 52 21 0 9 -65 -7 -106 -26 -48 -23 -84 -34
-84 -27 0 4 5 16 12 29 6 12 14 29 18 37 4 8 24 18 44 22 21 5 46 14 56 21 18
13 17 14 -11 31 -18 10 -37 15 -50 11 -16 -5 -20 -4 -14 6 4 8 -15 -8 -42 -36
-51 -53 -103 -91 -103 -76 0 5 -10 7 -21 4 -18 -5 -20 -3 -11 13 6 10 33 43
61 72 85 89 141 173 141 214 0 9 4 19 9 22 10 7 20 76 11 76 -13 0 15 189 31
204 5 6 9 18 9 27 0 10 5 21 12 25 8 5 9 2 5 -10 -12 -30 4 -38 24 -12 23 30
24 34 2 38 -14 3 -10 11 21 46 21 23 52 50 67 59 35 21 37 33 7 33 -22 0 -21
1 7 25 17 13 38 24 47 25 10 0 22 8 27 19 8 14 6 23 -9 36 -60 54 -240 -78
-240 -177 0 -44 -31 -84 -58 -73 -32 12 -172 24 -219 19 -51 -6 -255 9 -288
21 -18 7 -18 6 3 -16 22 -23 29 -24 154 -24 92 -1 133 -4 136 -13 2 -8 -40
-11 -170 -9 -161 2 -175 4 -204 24 -27 19 -33 32 -42 92 -22 131 -11 522 19
678 15 77 72 114 129 83 13 -7 27 -6 44 2 32 14 42 5 29 -24 -7 -16 -6 -30 4
-48 7 -14 13 -19 13 -12 0 6 11 12 25 12 23 0 24 -2 13 -25 -6 -14 -17 -25
-25 -25 -10 0 -13 -31 -12 -147 l1 -148 19 40 c10 22 19 48 19 57 0 17 17 34
26 26 7 -8 -28 -102 -48 -127 -14 -18 -18 -41 -18 -103 l0 -79 64 -29 c53 -23
85 -30 173 -36 59 -3 128 -13 152 -21 41 -14 45 -14 54 3 13 23 57 64 69 64
17 0 88 64 80 72 -4 4 -23 3 -42 -2 -47 -13 -55 -13 -41 4 7 8 32 20 57 27 55
17 52 32 -9 41 -64 9 -69 13 -63 61 8 70 47 163 100 241 13 19 26 54 30 78 4
24 12 57 18 74 10 27 8 38 -11 74 -12 23 -19 45 -15 49 4 3 9 0 12 -8 3 -8 16
-25 29 -37 32 -29 45 -82 38 -146 l-6 -53 30 29 c17 17 31 36 31 43 0 7 4 13
9 13 5 0 9 10 10 23 1 12 3 46 5 75 8 103 -23 141 -153 187 -62 21 -231 17
-231 -6 0 -4 24 -17 53 -29 51 -20 51 -20 12 -14 -70 11 -355 13 -482 3 -179
-14 -256 -45 -358 -146 -59 -58 -85 -90 -85 -103 0 -6 -3 -10 -8 -10 -4 0 -13
-13 -19 -28 -15 -32 -67 -46 -56 -14 9 24 95 132 132 165 32 28 41 50 17 41
-9 -3 -15 4 -18 20 -3 14 -1 24 6 23 5 -1 10 6 11 15 0 22 58 84 97 104 25 13
40 13 103 3 40 -6 116 -10 168 -7 105 4 107 6 227 119 25 24 66 53 91 65 25
12 61 35 81 53 33 29 41 31 114 32 98 1 204 13 184 21 -29 10 -135 30 -192 35
-32 3 -58 9 -58 14 0 5 -6 9 -13 9 -16 0 -50 -34 -42 -42 3 -3 -2 -11 -11 -19
-13 -11 -15 -11 -14 2 7 49 -15 63 -61 38 -35 -18 -41 -5 -14 31 14 18 25 47
25 63 0 25 -3 28 -20 24 -18 -5 -20 -2 -14 16 10 31 47 88 72 110 18 17 84 45
105 47 5 0 41 -14 80 -31z m-4553 -115 c155 -102 174 -116 122 -90 -42 22 -52
15 -15 -9 59 -39 93 -91 93 -145 0 -39 -19 -39 -27 0 -3 17 -10 33 -14 36 -13
8 -11 -70 2 -83 7 -7 6 -12 -5 -16 -16 -6 -29 35 -28 87 1 35 -15 69 -29 61
-5 -4 -9 -2 -9 2 0 10 -84 53 -115 59 -11 2 -47 9 -80 15 -33 6 -66 15 -72 21
-9 7 -29 6 -64 -2 -44 -11 -55 -18 -81 -59 -25 -40 -28 -52 -23 -91 4 -25 29
-87 56 -139 57 -106 61 -132 7 -40 -20 33 -38 55 -41 47 -2 -7 -2 -2 0 10 3
17 0 21 -8 16 -7 -4 -9 -3 -5 4 8 13 -24 83 -35 76 -4 -2 -13 4 -19 13 -9 15
-10 11 -6 -17 l6 -35 -16 35 c-22 48 -29 148 -14 196 30 95 99 142 211 143
l65 1 144 -96z m45 -164 c4 -7 -13 -8 -52 -4 -76 9 -80 14 -10 14 31 0 59 -5
62 -10z m-165 -15 c0 -2 -13 -11 -30 -20 -38 -19 -40 -11 -2 9 31 17 32 18 32
11z m100 -12 c-8 -2 -32 -11 -52 -19 -21 -7 -38 -11 -38 -8 0 8 63 33 85 33
14 0 15 -2 5 -6z m-200 -128 c-7 -59 -7 -59 -9 -13 -1 40 7 85 14 76 1 -2 -2
-30 -5 -63z m3690 41 c0 -3 -4 -8 -10 -11 -5 -3 -10 -1 -10 4 0 6 5 11 10 11
6 0 10 -2 10 -4z m-3058 -49 c-37 -38 -112 -84 -112 -68 0 9 127 101 139 101
3 0 -10 -15 -27 -33z m3388 17 c0 -2 -7 -4 -15 -4 -8 0 -15 4 -15 10 0 5 7 7
15 4 8 -4 15 -8 15 -10z m-4415 -29 c38 -19 80 -61 89 -90 5 -16 1 -21 -16
-22 -11 -1 -24 -7 -28 -13 -5 -7 -11 -6 -20 5 -7 8 -17 15 -22 15 -6 0 -19 11
-30 25 -20 25 -49 31 -95 19 -33 -9 -28 -21 12 -28 57 -11 49 -23 -20 -30 -84
-8 -99 -14 -84 -32 6 -7 8 -18 4 -24 -3 -5 1 -10 9 -10 20 0 20 -9 1 -34 -23
-30 -18 -35 21 -23 26 8 40 8 53 0 21 -13 43 1 34 23 -3 8 6 19 22 26 25 11
29 10 47 -12 14 -17 17 -31 12 -54 -9 -40 -67 -151 -72 -137 -2 6 -8 9 -13 5
-5 -3 -9 0 -9 5 0 6 6 11 13 12 10 0 10 2 0 6 -7 2 -13 9 -13 14 0 6 5 7 10 4
6 -3 10 -1 10 4 0 19 -29 12 -40 -9 -8 -14 -17 -19 -33 -15 -18 5 -29 -2 -52
-34 -17 -22 -36 -39 -42 -36 -22 8 -36 -36 -30 -95 3 -32 1 -64 -4 -71 -7 -12
-9 -12 -9 0 0 8 -3 12 -6 9 -8 -9 13 -48 45 -82 l26 -28 -30 15 c-36 18 -71
55 -113 120 -61 92 -66 107 -66 202 -1 86 1 93 32 142 43 67 105 123 137 123
17 0 33 12 55 45 17 25 32 45 33 45 1 0 20 7 42 15 53 19 99 19 140 0z m274
-45 c11 -24 11 -24 -3 -6 -9 11 -16 24 -16 30 0 12 5 7 19 -24z m408 -56 c-3
-3 -12 -4 -19 -1 -8 3 -5 6 6 6 11 1 17 -2 13 -5z m146 -1 c-7 -2 -19 -2 -25
0 -7 3 -2 5 12 5 14 0 19 -2 13 -5z m3104 -25 c-3 -8 -6 -5 -6 6 -1 11 2 17 5
13 3 -3 4 -12 1 -19z m-4067 -28 c0 -12 -28 -25 -36 -17 -9 9 6 27 22 27 8 0
14 -5 14 -10z m563 -38 c4 -21 3 -31 -3 -27 -6 3 -10 20 -10 37 0 38 5 34 13
-10z m175 -17 c-3 -3 -9 2 -12 12 -6 14 -5 15 5 6 7 -7 10 -15 7 -18z m-708 7
c0 -5 -15 -9 -32 -9 -27 -1 -29 1 -13 7 27 11 45 12 45 2z m206 -14 c-1 -13
-7 -21 -11 -20 -4 2 -11 -2 -16 -9 -4 -8 -11 -10 -15 -6 -6 6 32 57 43 57 1 0
1 -10 -1 -22z m988 -61 c-8 -22 -23 -22 -40 1 -18 23 -17 30 4 35 23 5 44 -16
36 -36z m-416 -42 c-3 -3 -9 2 -12 12 -6 14 -5 15 5 6 7 -7 10 -15 7 -18z
m-152 -90 c7 -19 14 -51 13 -72 -1 -33 -2 -30 -13 22 -6 33 -15 66 -19 73 -5
6 -5 12 -2 12 3 0 13 -16 21 -35z m1344 25 c36 -6 91 -23 122 -38 34 -17 61
-25 67 -19 5 5 11 -1 14 -15 4 -14 18 -31 33 -38 27 -15 58 -73 95 -179 22
-63 26 -208 8 -293 -30 -138 -130 -254 -252 -289 -16 -4 -77 -4 -136 1 -58 5
-143 11 -188 14 -46 3 -91 10 -102 15 -11 6 -27 8 -35 5 -16 -6 -75 32 -108
71 -65 75 -98 177 -98 301 0 144 32 249 102 334 89 108 281 160 478 130z
m-483 -76 c-3 -3 -12 -4 -19 -1 -8 3 -5 6 6 6 11 1 17 -2 13 -5z m3023 -44
c-19 -13 -30 -13 -30 0 0 6 10 10 23 10 18 0 19 -2 7 -10z m-4420 -82 c0 -4
24 -22 53 -41 55 -37 104 -57 93 -39 -3 6 -20 13 -37 17 -17 4 -28 9 -25 12 3
3 -1 12 -9 20 -28 27 -15 35 18 11 17 -14 64 -40 102 -59 39 -18 72 -36 75
-39 3 -3 16 -7 30 -8 14 -1 43 -8 65 -16 40 -15 40 -15 10 -17 -32 -3 -44 -2
-117 4 -99 10 -255 111 -294 191 l-16 31 26 -30 c14 -16 25 -33 26 -37z m145
42 c10 -11 16 -20 13 -20 -3 0 -13 9 -23 20 -10 11 -16 20 -13 20 3 0 13 -9
23 -20z m-128 -114 c94 -45 103 -63 11 -23 -91 40 -119 56 -98 57 9 0 48 -15
87 -34z m2803 -62 c0 -9 -7 -14 -17 -12 -25 5 -28 28 -4 28 12 0 21 -6 21 -16z
m1957 -41 c-8 -15 -25 -37 -38 -48 -26 -23 -17 -2 14 32 11 13 21 33 23 45 3
32 6 35 11 16 2 -9 -2 -29 -10 -45z m-364 -30 c7 -12 5 -20 -8 -29 -16 -12
-21 -10 -40 9 -12 12 -24 33 -27 48 l-4 25 35 -18 c19 -10 39 -25 44 -35z
m-1435 35 c9 -9 15 -9 24 0 18 18 28 14 28 -12 0 -21 -6 -25 -42 -30 -24 -3
-50 -7 -58 -8 -27 -4 -81 14 -77 25 2 7 20 15 40 18 21 3 40 9 44 12 10 11 28
8 41 -5z m-2746 -98 c10 0 34 -15 54 -32 36 -32 37 -32 30 -8 -4 15 6 4 25
-25 l33 -50 4 -157 c5 -166 -3 -315 -18 -339 -8 -11 -12 -11 -24 6 -34 44 -38
89 -21 238 9 78 14 159 11 180 -11 65 -42 113 -103 158 -39 28 -50 40 -33 35
14 -3 33 -6 42 -6z m-199 -12 c-17 -29 -12 -47 20 -66 38 -22 113 -152 88
-152 -4 0 -13 18 -20 39 -10 36 -60 91 -81 91 -16 0 -30 -38 -30 -80 0 -34 -3
-41 -15 -36 -8 3 -22 9 -32 13 -11 4 -14 3 -9 -5 4 -7 3 -12 -3 -12 -16 0 -31
36 -31 75 0 43 31 108 62 129 27 19 63 22 51 4z m2647 -23 c0 -14 -4 -25 -10
-25 -5 0 -10 11 -10 25 0 14 5 25 10 25 6 0 10 -11 10 -25z m310 11 c0 -2 -7
-6 -15 -10 -8 -3 -15 -1 -15 4 0 6 7 10 15 10 8 0 15 -2 15 -4z m110 -21 c17
-20 8 -27 -24 -19 -26 6 -32 15 -19 27 11 12 30 8 43 -8z m-2675 -120 l6 -30
-20 35 c-24 41 -27 60 -7 40 8 -8 17 -28 21 -45z m-216 -181 c1 -75 -14 -156
-37 -203 -12 -27 -24 -37 -45 -39 -15 -2 -33 -12 -40 -23 -12 -20 -37 -26 -37
-9 0 9 7 16 48 48 26 20 72 138 72 186 0 19 -7 39 -15 46 -10 8 -15 29 -14 59
l1 46 13 -45 13 -45 2 60 1 60 19 -40 c11 -24 19 -64 19 -101z m3274 69 c-7
-2 -19 -2 -25 0 -7 3 -2 5 12 5 14 0 19 -2 13 -5z m-1948 -103 c3 -5 2 -10 -4
-10 -5 0 -13 5 -16 10 -3 6 -2 10 4 10 5 0 13 -4 16 -10z m1560 -32 c-35 -60
-33 -69 11 -55 27 8 40 8 55 -1 10 -7 25 -12 34 -12 9 0 12 -6 9 -15 -4 -8
-13 -15 -22 -15 -12 0 -13 -3 -4 -12 9 -9 18 -6 39 14 25 22 111 48 99 30 -3
-4 17 -18 44 -30 35 -16 78 -53 149 -130 69 -74 120 -119 161 -142 l61 -34
-23 -18 c-28 -21 -45 -24 -29 -4 10 12 6 15 -19 21 -16 4 -36 15 -42 24 -35
49 -156 175 -205 213 -50 38 -63 43 -114 45 -54 2 -59 0 -102 -41 -30 -29 -50
-60 -62 -96 -10 -29 -26 -61 -36 -71 -19 -19 -19 -19 1 -19 12 0 25 10 31 23
6 13 19 23 29 24 18 2 21 -12 7 -33 -8 -14 35 -24 102 -24 141 0 314 -87 363
-183 113 -223 53 -565 -115 -653 -45 -24 -186 -30 -411 -18 l-138 7 12 -22 c6
-13 10 -25 7 -27 -11 -11 -89 11 -111 31 -40 37 -46 83 -46 350 1 254 12 431
29 464 16 29 57 51 108 57 82 9 95 14 89 29 -3 8 0 15 6 15 7 0 6 5 -2 15 -13
15 -35 11 -25 -6 4 -5 -1 -9 -10 -9 -25 0 -55 60 -55 110 0 75 28 137 88 191
30 27 55 49 57 49 2 0 -7 -19 -20 -42z m747 -14 c27 -48 27 -49 8 -68 -22 -22
-49 -15 -57 14 -6 21 -47 28 -58 10 -4 -6 -11 -7 -17 -4 -7 4 -6 0 1 -13 7
-15 7 -25 -3 -38 -16 -22 -46 -14 -46 12 0 24 27 63 44 63 19 0 58 41 52 55
-5 13 18 25 39 21 6 -1 22 -25 37 -52z m612 43 c-3 -8 -11 -14 -19 -14 -11 0
-12 4 -4 14 6 7 15 13 20 13 5 0 6 -6 3 -13z m-2194 -39 c0 -24 -4 -49 -9 -56
-10 -17 -79 -33 -87 -21 -3 5 0 9 6 9 6 0 13 8 17 18 9 25 57 92 66 92 4 0 7
-19 7 -42z m2777 36 c-3 -3 -12 -4 -19 -1 -8 3 -5 6 6 6 11 1 17 -2 13 -5z
m-5247 -14 c0 -5 -8 -10 -17 -10 -35 0 -140 -58 -169 -94 -33 -39 -68 -125
-62 -152 2 -12 17 5 46 49 24 37 58 78 75 91 59 44 149 54 178 20 9 -12 3 -14
-37 -14 -58 0 -89 -14 -120 -55 l-23 -31 23 -24 23 -25 -20 -45 c-10 -25 -22
-76 -24 -115 -4 -56 -10 -73 -27 -87 -19 -15 -22 -15 -38 -1 -10 9 -18 24 -18
34 0 10 -5 21 -10 24 -7 4 -9 -2 -4 -19 8 -34 -9 -33 -36 1 -17 22 -23 24 -30
13 -7 -11 -11 -11 -24 -1 -21 18 -21 113 -1 172 49 141 132 242 223 269 39 12
92 12 92 0z m3686 -47 c7 -10 14 -25 14 -33 0 -8 31 -48 69 -87 65 -70 69 -73
114 -73 33 0 71 11 130 39 137 64 205 76 220 38 4 -11 -7 -13 -47 -9 -45 4
-62 -1 -122 -31 -113 -56 -175 -73 -224 -58 -54 16 -118 61 -122 85 -2 11 -10
20 -20 22 -9 1 -32 13 -52 26 -29 20 -33 27 -23 38 9 10 9 11 0 6 -9 -5 -11
-2 -7 8 5 12 10 13 26 5 19 -10 20 -9 14 15 -7 30 10 35 30 9z m-2828 -35 c-3
-7 -13 -13 -23 -13 -10 0 -20 6 -22 13 -3 7 5 12 22 12 17 0 25 -5 23 -12z
m1592 -72 c0 -2 -7 -7 -16 -10 -8 -3 -12 -2 -9 4 6 10 25 14 25 6z m-380 -33
c0 -5 -3 -18 -6 -31 -5 -17 -9 -20 -20 -11 -10 8 -11 16 -3 30 10 19 29 26 29
12z m460 3 c0 -11 -33 -36 -47 -36 -14 0 -14 3 2 20 16 18 45 28 45 16z m1747
-2 c-3 -3 -12 -4 -19 -1 -8 3 -5 6 6 6 11 1 17 -2 13 -5z m-3853 -29 c-4 -8
-11 -15 -16 -15 -6 0 -5 6 2 15 7 8 14 15 16 15 2 0 1 -7 -2 -15z m1676 -6 c0
-6 -4 -7 -10 -4 -5 3 -10 11 -10 16 0 6 5 7 10 4 6 -3 10 -11 10 -16z m-2080
-47 c21 -13 26 -22 19 -29 -15 -15 -3 -32 19 -27 9 3 37 -2 62 -10 l45 -14
-62 -1 c-61 -1 -63 -2 -63 -27 0 -22 -3 -24 -22 -19 -13 4 -29 14 -35 23 -12
14 -14 14 -26 -2 -13 -18 -14 -18 -20 -2 -4 10 -4 28 -1 42 5 18 2 24 -10 24
-20 0 -20 5 0 35 20 30 52 32 94 7z m2140 -12 c0 -5 -4 -10 -10 -10 -5 0 -10
5 -10 10 0 6 5 10 10 10 6 0 10 -4 10 -10z m2085 -40 c10 -11 24 -20 32 -20 7
0 13 -4 13 -8 0 -4 15 -13 33 -20 18 -6 42 -19 52 -27 17 -13 18 -16 5 -25
-11 -7 -6 -10 21 -10 43 0 120 -48 137 -85 15 -32 2 -32 -36 0 -23 19 -41 25
-79 25 -33 0 -66 8 -99 25 -27 14 -51 25 -53 25 -2 0 0 -15 4 -32 4 -18 9
-100 10 -183 1 -82 5 -173 9 -202 5 -34 3 -65 -5 -90 -7 -22 -12 -81 -11 -140
1 -60 -3 -103 -8 -103 -6 0 -10 -6 -10 -14 0 -7 -16 -21 -36 -31 -32 -15 -39
-15 -66 -2 -31 15 -58 13 -58 -4 0 -21 -43 15 -56 46 -11 27 -13 89 -8 327 3
161 10 310 15 332 12 43 1 63 -26 52 -11 -4 -14 -12 -10 -25 3 -11 2 -22 -3
-25 -15 -9 -52 6 -52 20 0 8 -10 14 -25 14 -58 0 -10 74 71 109 27 12 75 26
108 30 47 6 64 14 80 34 26 32 28 32 51 7z m-2730 0 c26 -7 23 -8 -20 -8 -27
0 -59 3 -70 8 -26 11 46 11 90 0z m775 -28 c0 -15 -78 -84 -88 -78 -6 3 -13
-3 -17 -14 -8 -26 -15 -25 -44 6 l-24 25 21 21 c17 18 24 19 36 9 18 -15 47
-7 71 19 18 20 45 27 45 12z m-300 -15 c47 -24 50 -53 44 -437 -3 -195 -10
-371 -15 -391 -5 -19 -20 -46 -33 -58 -23 -22 -26 -22 -48 -7 -25 18 -64 21
-73 6 -11 -18 -43 -10 -64 16 -16 20 -21 41 -21 88 0 110 23 421 31 431 5 5 9
-1 9 -15 0 -35 15 -57 24 -35 9 25 7 93 -3 100 -11 6 -41 -33 -80 -108 -64
-122 -163 -224 -208 -215 -12 2 -11 8 6 30 20 25 30 95 12 84 -5 -3 -7 -14 -4
-24 2 -10 -3 -24 -11 -31 -13 -11 -23 -8 -60 17 -47 32 -51 24 -14 -30 28 -40
22 -42 -26 -9 -55 38 -97 87 -90 105 3 8 1 23 -5 34 -7 13 -7 22 1 30 8 8 6
18 -6 36 -9 14 -16 32 -16 41 0 18 -11 19 -34 2 -15 -11 -17 -24 -13 -83 3
-38 10 -100 17 -139 16 -93 9 -240 -13 -282 -18 -34 -59 -63 -64 -46 -2 6 -32
9 -68 7 -97 -4 -95 -12 -94 358 0 167 4 345 7 396 9 119 21 131 129 132 l72 0
73 -92 c41 -51 94 -121 118 -156 25 -36 49 -61 56 -58 7 3 26 1 43 -4 29 -8
32 -6 79 58 27 37 72 101 100 143 69 103 90 119 161 119 31 0 67 -6 81 -13z
m870 -10 c66 -23 88 -110 42 -167 -15 -18 -21 -20 -46 -10 -32 12 -355 3 -377
-11 -18 -11 -24 -112 -8 -126 9 -7 78 -13 186 -15 110 -2 176 -7 183 -14 31
-31 29 -136 -2 -156 -20 -12 -33 -9 -20 4 7 7 12 16 12 20 0 9 -293 11 -338 2
-27 -5 -30 -9 -22 -25 7 -12 7 -20 0 -24 -5 -3 -10 -40 -10 -81 0 -70 1 -74
23 -76 12 -1 109 -2 214 -2 l193 -1 26 -26 c34 -34 42 -94 19 -143 -22 -47
-46 -60 -71 -41 -17 13 -18 14 -1 15 9 0 17 5 17 11 0 8 -86 10 -302 6 -327
-6 -328 -6 -348 47 -13 34 -13 605 0 695 11 76 35 106 94 120 62 14 494 12
536 -2z m935 -27 c3 -5 1 -10 -4 -10 -6 0 -11 5 -11 10 0 6 2 10 4 10 3 0 8
-4 11 -10z m702 -129 c4 -9 15 -29 26 -44 19 -27 19 -29 1 -42 -11 -8 -27 -15
-36 -15 -9 0 -23 -3 -31 -6 -19 -7 -45 35 -29 45 11 7 0 34 -12 31 -3 -1 -20
2 -37 5 l-31 7 36 22 c42 25 104 24 113 -3z m-4642 -11 c3 -5 2 -10 -4 -10 -5
0 -13 5 -16 10 -3 6 -2 10 4 10 5 0 13 -4 16 -10z m685 -75 c0 -14 7 -25 16
-27 10 -2 5 -7 -15 -15 l-31 -11 0 50 c0 44 2 49 15 38 8 -7 15 -23 15 -35z
m-616 -22 c-30 -61 -30 -73 1 -73 32 0 32 -17 1 -31 -31 -14 -50 -51 -41 -78
7 -24 25 -28 25 -6 0 9 9 15 25 15 23 0 24 -2 15 -20 -10 -18 -17 -22 -36 -19
-4 0 -10 -4 -14 -10 -18 -30 -79 39 -87 98 -6 47 15 91 59 122 18 13 39 31 46
41 25 35 29 8 6 -39z m816 13 c0 -7 -7 -21 -15 -32 -13 -18 -14 -16 -15 25 0
37 2 42 15 31 8 -7 15 -18 15 -24z m-150 -183 c0 -2 -10 -8 -22 -14 -13 -5
-34 -17 -48 -25 -23 -14 -20 -15 58 -11 46 2 85 0 88 -5 3 -4 -6 -8 -20 -8
-28 0 -96 -29 -96 -41 0 -4 4 -10 9 -13 5 -3 12 -22 16 -42 6 -34 8 -36 37
-30 17 3 43 6 59 6 24 0 29 4 29 26 0 31 23 28 28 -4 4 -24 39 -30 73 -12 26
15 25 -2 -6 -54 -14 -24 -22 -46 -18 -49 17 -18 -24 -4 -51 16 -57 43 -148 61
-174 35 -7 -7 -12 -22 -12 -34 0 -15 -6 -21 -17 -20 -16 1 -18 -8 -17 -74 2
-65 0 -72 -12 -56 -7 11 -20 43 -29 73 -9 29 -20 53 -25 53 -12 0 -12 2 -1
-38 14 -47 -4 -40 -39 16 l-30 47 0 -33 c0 -18 5 -43 11 -55 6 -13 -4 -7 -26
16 -35 37 -37 41 -30 85 9 62 23 86 92 157 38 39 74 65 103 76 43 15 70 20 70
12z m415 -38 c-16 -7 -34 -11 -39 -8 -13 8 16 23 44 22 24 -1 24 -1 -5 -14z
m-810 -7 c16 1 17 -1 5 -8 -21 -14 -60 -11 -95 5 -29 14 -29 14 20 8 28 -4 59
-6 70 -5z m2544 -22 c-2 -2 -48 -7 -103 -11 -71 -5 -97 -4 -92 4 5 7 44 11
103 11 53 0 94 -2 92 -4z m2971 -21 c11 -13 9 -15 -13 -15 -13 0 -30 7 -37 15
-11 13 -9 15 13 15 13 0 30 -7 37 -15z m-5545 -85 c-6 -10 18 -14 60 -11 17 1
15 -2 -10 -24 -16 -14 -42 -31 -57 -38 -16 -6 -28 -18 -28 -25 0 -7 -9 -30
-20 -52 -11 -22 -20 -43 -20 -47 0 -8 19 -28 68 -73 12 -11 22 -30 22 -42 -1
-22 -1 -22 -25 5 -13 15 -28 27 -33 27 -5 0 -16 -18 -25 -41 -10 -24 -24 -43
-37 -46 -11 -3 -20 -14 -20 -24 0 -11 -7 -19 -16 -19 -9 0 -14 -6 -11 -12 22
-61 16 -73 -21 -40 -20 16 -42 65 -64 145 -6 20 -15 37 -20 37 -16 0 1 70 27
115 33 56 90 107 160 144 63 32 80 38 70 21z m771 -32 c-9 -13 -21 -40 -27
-61 -5 -21 -14 -35 -19 -32 -6 3 4 33 21 67 17 33 33 58 36 55 3 -3 -2 -16
-11 -29z m5052 5 c2 -9 -6 -11 -30 -7 -50 10 -60 26 -14 22 22 -2 41 -9 44
-15z m-258 -70 c0 -15 -16 -30 -65 -63 -53 -36 -95 -75 -95 -90 0 -4 -3 -17
-6 -27 -4 -10 6 -1 21 20 16 20 32 37 37 37 4 0 8 6 8 14 0 18 26 28 54 21 12
-3 15 -2 8 1 -10 5 -10 9 -1 20 6 8 16 14 21 14 6 0 5 -7 -2 -15 -7 -8 -9 -15
-4 -15 4 0 -8 -17 -28 -37 -44 -46 -68 -98 -68 -151 0 -32 9 -51 45 -98 25
-32 50 -74 55 -95 6 -20 18 -47 29 -60 43 -56 54 -92 53 -172 -2 -106 -31
-159 -112 -208 -40 -25 -57 -28 -57 -13 0 8 4 14 9 14 4 0 8 4 8 9 0 4 -31 6
-69 3 -37 -2 -76 0 -86 5 -16 9 -11 15 37 46 60 38 84 64 51 53 -43 -14 -121
-14 -139 -1 -18 13 -18 14 0 34 10 11 23 18 27 15 5 -3 9 -1 9 4 0 14 -56 23
-99 16 -29 -5 -40 -2 -55 15 -10 11 -33 25 -52 31 -18 6 -36 20 -39 31 -4 10
-11 19 -16 19 -13 0 -11 -28 3 -32 17 -6 11 -66 -8 -85 -12 -13 -13 -18 -2
-32 7 -10 -4 0 -24 22 -36 37 -38 43 -38 101 1 33 7 75 14 91 16 36 2 71 -40
104 -50 39 -147 20 -212 -42 -24 -23 -35 -28 -41 -19 -5 9 -11 5 -19 -13 -6
-14 -20 -25 -30 -25 -25 0 -79 -143 -87 -230 -10 -124 -11 -201 -2 -207 5 -3
6 -21 2 -40 -4 -24 -3 -33 4 -28 6 3 11 17 11 31 0 14 7 32 15 40 8 9 15 28
15 44 0 20 6 31 20 35 15 5 20 15 20 41 0 19 7 67 16 105 9 39 14 84 12 100
-3 16 -1 29 4 29 4 0 8 10 8 22 0 25 96 123 136 138 32 13 67 13 60 1 -3 -5
-14 -7 -24 -5 -9 2 -34 -8 -56 -24 -30 -21 -44 -42 -62 -91 -28 -74 -30 -93
-9 -85 18 7 19 -7 5 -58 -9 -31 -6 -49 19 -120 16 -46 36 -99 45 -119 14 -33
14 -44 1 -105 -8 -38 -15 -84 -15 -102 0 -18 -9 -50 -20 -72 -24 -47 -26 -76
-5 -84 8 -3 15 -17 15 -31 0 -57 -140 -77 -268 -36 -39 12 -70 26 -67 31 3 4
-7 13 -23 18 -37 14 -69 39 -60 48 4 4 31 0 59 -9 84 -28 151 -21 142 13 -6
23 -35 43 -86 59 -33 11 -57 35 -57 57 0 3 19 3 43 -1 81 -14 181 -23 194 -18
24 9 14 24 -14 21 -24 -3 -28 0 -25 19 2 17 -1 21 -12 17 -9 -3 -16 -13 -16
-22 0 -13 -2 -13 -13 3 -11 14 -31 19 -94 22 -70 3 -82 1 -98 -17 -10 -11 -24
-20 -32 -20 -8 0 -19 -12 -26 -27 -17 -39 -37 -35 -76 17 -19 25 -30 36 -26
25 4 -11 10 -29 13 -40 2 -11 8 -24 13 -30 4 -5 10 -27 14 -49 l8 -38 -26 16
c-14 10 -31 31 -38 48 -15 36 -18 132 -5 135 5 0 13 8 18 17 5 9 15 16 23 16
8 0 12 6 9 13 -7 20 34 67 60 67 12 0 33 11 46 25 15 16 27 22 35 15 7 -6 18
6 34 41 24 49 36 59 44 37 2 -7 7 13 11 44 4 32 5 62 2 67 -3 5 -3 17 0 26 9
22 24 1 24 -33 0 -15 5 -22 13 -19 6 2 11 13 9 23 -2 10 -4 54 -4 96 -2 73 0
80 36 135 39 60 102 123 146 145 14 7 27 16 30 19 12 15 71 39 95 39 15 0 24
4 20 10 -3 6 -29 10 -56 10 -56 0 -58 15 -4 26 43 8 146 -11 237 -43 42 -14
90 -23 128 -23 33 0 96 -7 140 -16 45 -9 84 -13 88 -9 4 3 -7 16 -23 28 -59
42 -95 84 -95 111 0 60 121 205 204 245 41 20 96 28 96 14z m-4848 -122 c-5
-94 19 -177 72 -259 48 -73 52 -82 16 -42 -42 46 -86 134 -95 190 -11 62 -6
190 8 190 1 0 1 -36 -1 -79z m4324 -83 c33 -20 35 -22 16 -29 -11 -4 -23 -17
-27 -28 -3 -12 -11 -21 -16 -21 -6 0 -17 -7 -26 -15 -14 -14 -18 -13 -39 12
-30 35 -30 50 -2 80 27 29 47 29 94 1z m-4906 -14 c0 -8 -4 -12 -10 -9 -5 3
-10 10 -10 16 0 5 5 9 10 9 6 0 10 -7 10 -16z m1161 -11 c34 -37 62 -83 50
-83 -14 0 -32 26 -23 35 4 5 -1 5 -10 2 -11 -4 -25 5 -42 28 -14 18 -26 36
-26 39 0 15 29 3 51 -21z m1098 -5 c9 -15 12 -30 7 -35 -8 -8 -56 41 -56 58 0
20 34 4 49 -23z m-925 -108 c61 -91 116 -149 137 -143 5 2 9 -2 9 -7 0 -5 4
-10 8 -10 5 0 29 -20 55 -44 55 -51 97 -142 97 -208 -1 -69 -25 -189 -50 -241
-30 -63 -38 -52 -12 15 25 64 40 217 23 244 -9 15 -11 8 -8 -36 7 -96 -35
-273 -70 -302 -15 -11 -16 -10 -10 12 46 165 49 186 44 270 -7 131 -35 189
-148 310 -17 19 -62 79 -98 135 -92 138 -87 129 -63 116 12 -6 50 -56 86 -111z
m-1280 78 c18 -36 20 -48 6 -48 -13 0 -42 58 -35 70 9 15 12 13 29 -22z m2496
24 c0 -10 -60 -46 -66 -39 -3 2 10 14 28 26 38 24 38 24 38 13z m-1203 -78
c-3 -3 -12 9 -21 27 -22 45 -20 50 5 11 12 -18 19 -35 16 -38z m-257 48 c0 -4
-9 -8 -20 -9 -11 -1 -20 2 -20 8 0 5 9 9 20 9 11 0 20 -4 20 -8z m-100 -22 c0
-7 7 -7 21 0 11 7 23 9 26 6 6 -6 -40 -26 -60 -26 -6 0 -24 -12 -39 -27 -38
-37 -36 -15 3 25 32 33 49 40 49 22z m4614 -3 c13 -10 16 -20 12 -35 -8 -23
-60 -57 -75 -48 -16 10 1 54 22 61 19 6 20 8 5 12 -10 2 -18 9 -18 14 0 13 33
11 54 -4z m-4359 -38 c11 -17 -1 -21 -15 -4 -8 9 -8 15 -2 15 6 0 14 -5 17
-11z m-338 -66 c4 -9 1 -19 -5 -21 -6 -2 -14 -19 -18 -38 -8 -44 -24 -44 -24
1 0 56 33 96 47 58z m1685 -67 c-28 -30 -62 -78 -75 -108 -82 -182 -124 -258
-136 -242 -3 5 -23 9 -43 10 -20 1 -44 9 -53 18 -9 9 -28 19 -43 22 -15 3 -37
7 -50 10 -31 6 -20 20 23 28 19 4 39 15 45 25 5 11 30 32 55 47 43 27 56 44
36 44 -5 0 -38 -7 -73 -16 -92 -24 -159 -14 -273 41 -52 24 -96 49 -99 54 -4
5 6 4 21 -4 124 -59 123 -59 253 -60 156 0 199 13 300 95 60 48 120 81 159 89
2 1 -19 -23 -47 -53z m-1855 -203 c27 -11 42 -12 69 -3 36 12 54 7 54 -16 0
-17 -62 -19 -129 -3 -33 7 -46 7 -52 -2 -12 -21 -38 -3 -32 22 5 17 3 21 -9
17 -10 -4 -21 6 -35 33 -17 34 -21 37 -26 20 -5 -22 38 -125 50 -118 7 5 10
-10 16 -98 1 -20 -3 -30 -12 -30 -9 0 -19 21 -27 62 -7 34 -18 72 -26 85 l-13
23 -3 -30 c-6 -71 -14 -94 -42 -124 l-30 -31 1 28 c1 30 16 85 18 64 2 -28 21
1 21 33 0 35 -17 56 -29 36 -4 -7 -8 6 -9 28 -2 32 1 39 13 35 11 -4 15 1 16
17 2 30 2 30 -6 54 l-7 20 17 -20 c12 -14 19 -16 22 -7 3 6 8 10 13 7 18 -11
-3 35 -26 56 -13 12 -24 27 -24 32 0 5 43 -32 97 -83 53 -51 112 -99 130 -107z
m1124 171 c17 -8 29 -18 26 -20 -3 -3 -20 4 -38 15 -40 25 -31 28 12 5z m-305
-21 c-3 -8 -2 -12 3 -9 5 3 16 -5 25 -19 l16 -24 -34 22 c-40 25 -55 58 -24
49 11 -3 17 -10 14 -19z m829 8 c-6 -5 -26 -12 -45 -15 l-35 -6 35 14 c42 17
58 20 45 7z m1105 -5 c83 -20 118 -42 148 -94 15 -25 40 -58 56 -74 25 -23 27
-28 14 -33 -11 -5 -29 7 -54 35 -56 62 -105 84 -176 77 -50 -4 -60 -3 -69 14
-8 16 -5 21 16 31 29 13 32 33 8 47 -24 14 -9 13 57 -3z m-1463 -2 c-3 -3 -12
-4 -19 -1 -8 3 -5 6 6 6 11 1 17 -2 13 -5z m-795 -164 c7 -211 -5 -237 -141
-302 -113 -53 -168 -97 -221 -175 -53 -79 -69 -138 -50 -187 6 -16 8 -31 6
-33 -3 -3 -10 15 -17 39 -7 23 -16 47 -21 53 -13 15 -9 -46 7 -98 13 -44 13
-47 -3 -38 -46 24 -72 82 -49 106 8 8 18 43 22 77 9 84 32 151 59 177 12 11
46 25 75 31 29 5 92 30 140 55 l88 46 27 77 c19 54 30 115 38 204 10 105 14
124 24 110 7 -11 14 -67 16 -142z m1026 143 c-26 -2 -71 -2 -100 0 -29 2 -8 3
47 3 55 0 79 -1 53 -3z m1080 -45 c-5 -54 -21 -48 -56 25 -2 4 10 7 28 7 29 0
31 -2 28 -32z m-98 -107 c0 -31 24 -78 38 -74 6 3 12 11 12 19 0 8 4 14 9 14
6 0 5 -13 -1 -32 -6 -18 -13 -48 -15 -65 -5 -30 -3 -33 23 -34 58 -3 62 -4 68
-10 4 -4 -1 -28 -9 -54 -19 -54 -14 -66 15 -40 16 14 20 29 18 59 -3 35 0 41
17 41 17 0 20 -6 19 -40 -1 -53 -32 -133 -57 -147 -18 -9 -19 -8 -13 17 7 28
7 28 -36 21 -42 -6 -43 -6 -21 11 11 10 24 33 28 52 6 29 5 33 -9 28 -12 -5
-15 -3 -10 6 4 6 -4 3 -17 -9 -31 -27 -60 -38 -53 -19 8 20 -46 12 -62 -9 -11
-16 -44 -13 -44 5 0 5 -5 9 -11 9 -7 0 -8 -7 -4 -17 4 -10 10 -26 13 -37 8
-28 -19 -15 -39 20 -18 31 -25 79 -10 70 5 -3 12 5 15 18 3 14 20 38 36 55 29
29 80 123 80 149 0 6 5 12 10 12 6 0 10 -8 10 -19z m-2251 -86 l1 -50 -22 33
c-19 30 -20 37 -8 75 12 40 14 41 21 17 4 -14 7 -47 8 -75z m1120 39 c17 -4
31 -11 31 -16 0 -14 -73 -5 -78 10 -4 14 3 15 47 6z m1647 -22 c-4 -3 -14 2
-24 12 -16 18 -16 18 6 6 13 -6 21 -14 18 -18z m-2860 -44 c12 -19 -4 -19 -40
0 -19 11 -33 22 -30 25 7 7 62 -12 70 -25z m2941 2 c3 -12 13 -20 22 -19 9 1
45 -1 81 -4 36 -4 100 -4 144 1 77 8 78 8 56 -10 -12 -10 -39 -19 -59 -19 -50
-2 -90 -6 -128 -14 -18 -4 -41 -4 -50 0 -10 5 -24 9 -32 11 -45 9 -61 16 -61
26 0 6 -7 20 -17 30 -15 17 -15 18 11 18 20 0 29 -6 33 -20z m-1065 -46 c-4
-21 -7 -23 -13 -11 -10 17 -1 50 11 42 4 -2 5 -16 2 -31z m-2192 -14 c0 -5 -2
-10 -4 -10 -2 0 -20 -7 -39 -15 -32 -13 -36 -13 -31 0 4 8 10 12 15 9 5 -3 9
-1 9 5 0 8 16 16 43 20 4 0 7 -3 7 -9z m3121 -28 c-13 -2 -27 0 -32 5 -6 6 3
7 23 4 28 -4 29 -6 9 -9z m-3413 -34 c8 -8 9 -15 1 -25 -9 -10 -7 -13 5 -13
24 0 50 -29 64 -73 12 -34 11 -40 -9 -69 -39 -55 -59 -100 -53 -124 3 -12 1
-25 -5 -28 -14 -9 -33 28 -20 41 12 12 -10 125 -23 117 -5 -3 -14 -17 -19 -32
-13 -34 -25 -20 -45 50 -15 52 -15 58 2 93 9 21 31 46 48 56 37 22 38 23 54 7z
m2761 -35 c6 -20 8 -39 5 -42 -10 -11 -34 33 -34 62 0 37 17 26 29 -20z
m-1783 10 c-6 -16 -6 -16 12 0 10 9 21 17 25 17 5 0 4 -35 -2 -83 -1 -5 -5 -6
-10 -2 -5 3 -16 -2 -24 -10 -9 -8 -23 -15 -32 -15 -8 0 -38 -11 -65 -25 -55
-28 -92 -34 -44 -7 49 27 113 76 119 90 3 8 -8 4 -24 -7 -46 -33 -48 -25 -6
19 41 42 62 51 51 23z m1689 -53 c5 -17 4 -22 -3 -15 -5 6 -13 21 -17 35 -5
17 -4 22 3 15 5 -5 13 -21 17 -35z m-630 -32 c-17 -48 -63 -103 -97 -113 -33
-11 -32 2 5 39 20 19 50 56 67 81 18 26 34 45 36 42 2 -2 -3 -24 -11 -49z
m460 0 c-11 -69 -24 -80 -25 -22 0 50 5 64 23 64 5 0 6 -18 2 -42z m75 -11 c0
-52 -9 -87 -22 -87 -7 0 -8 14 -3 38 4 20 8 51 9 69 2 46 16 29 16 -20z
m-1477 -12 c-15 -19 -36 -35 -45 -35 -10 0 -18 -4 -18 -10 0 -5 -5 -10 -11
-10 -21 0 46 79 71 83 14 2 26 5 28 6 2 0 -10 -15 -25 -34z m2043 -22 c-14
-15 -26 -25 -26 -20 0 10 43 58 48 53 2 -3 -8 -17 -22 -33z m-1291 11 c12 -3
40 -1 61 5 21 6 40 9 42 6 7 -7 -22 -30 -42 -33 -25 -5 -105 18 -113 31 -4 6
0 8 11 4 10 -4 28 -10 41 -13z m-1126 -99 c-26 -44 -39 -52 -39 -26 0 19 35
61 52 61 4 0 -2 -16 -13 -35z m421 -16 l-35 -30 29 7 c40 10 26 -10 -25 -36
-39 -20 -47 -18 -30 9 5 8 14 10 22 6 9 -6 11 -4 6 8 -6 17 37 67 58 67 5 -1
-6 -14 -25 -31z m-528 -31 c-7 -7 -12 -8 -12 -2 0 6 3 14 7 17 3 4 9 5 12 2 2
-3 -1 -11 -7 -17z m217 -15 c-25 -27 -79 -130 -79 -149 0 -5 -9 -17 -19 -26
-19 -16 -20 -15 -26 25 -7 47 18 123 36 111 6 -4 14 -3 18 2 12 18 73 64 84
64 6 0 -1 -12 -14 -27z m-172 -55 c-3 -8 -6 -5 -6 6 -1 11 2 17 5 13 3 -3 4
-12 1 -19z m308 -54 c35 2 68 7 74 11 21 12 11 -5 -26 -45 -21 -24 -39 -37
-43 -31 -3 6 -19 12 -35 13 -19 2 -34 12 -47 33 -23 38 -25 69 -2 37 14 -20
22 -22 79 -18z"/>
<path d="M5189 6124 c-17 -20 -17 -95 -2 -179 12 -60 12 -60 6 27 -3 55 -1 99
7 123 14 42 9 53 -11 29z"/>
<path d="M5240 6085 c-10 -12 -10 -15 3 -15 19 0 31 16 18 24 -5 3 -14 -1 -21
-9z"/>
<path d="M5255 5916 c-8 -19 -19 -54 -24 -78 -40 -180 -36 -262 14 -310 14
-12 40 -45 57 -73 18 -27 55 -76 82 -109 49 -57 51 -58 64 -37 8 11 21 21 28
21 8 0 14 5 14 10 0 14 -90 110 -102 110 -6 0 -28 16 -51 35 -23 20 -46 34
-51 32 -20 -7 -54 57 -52 94 2 19 -1 40 -7 47 -15 19 -1 107 27 165 30 63 44
127 27 127 -7 0 -18 -15 -26 -34z"/>
<path d="M5581 5314 c0 -11 3 -14 6 -6 3 7 2 16 -1 19 -3 4 -6 -2 -5 -13z"/>
<path d="M5260 5215 c0 -18 -5 -25 -19 -25 -29 0 -51 -11 -51 -25 0 -7 -12
-23 -27 -35 -18 -14 -21 -20 -9 -16 41 13 141 100 132 114 -12 20 -26 13 -26
-13z"/>
<path d="M1875 5670 c-4 -6 15 -10 50 -10 35 0 54 4 50 10 -3 6 -26 10 -50 10
-24 0 -47 -4 -50 -10z"/>
<path d="M2965 5510 c3 -6 21 -17 38 -26 l32 -15 -28 25 c-28 26 -54 35 -42
16z"/>
<path d="M3020 5440 c-12 -7 -11 -10 5 -16 11 -4 29 -14 39 -23 18 -15 18 -15
8 5 -17 32 -36 44 -52 34z"/>
<path d="M2560 5353 c-41 -78 -47 -95 -25 -68 17 21 67 126 62 131 -1 1 -18
-27 -37 -63z"/>
<path d="M2055 5390 c-3 -5 1 -10 9 -10 8 0 18 5 21 10 3 6 -1 10 -9 10 -8 0
-18 -4 -21 -10z"/>
<path d="M4473 5393 c-22 -8 -14 -39 12 -53 14 -7 25 -17 25 -22 0 -19 37 -5
58 22 22 28 22 29 3 39 -11 6 -26 8 -34 5 -9 -3 -24 -1 -34 4 -10 5 -24 7 -30
5z"/>
<path d="M4410 5340 c0 -5 -8 -6 -17 -3 -16 6 -16 5 -4 -10 10 -13 17 -15 27
-6 16 13 18 29 4 29 -5 0 -10 -4 -10 -10z"/>
<path d="M4159 5275 c-8 -32 -26 -60 -60 -94 l-48 -48 -61 3 c-39 2 -74 10
-96 23 -44 26 -52 26 -30 2 22 -24 98 -61 125 -61 11 0 46 8 77 17 82 26 137
100 127 171 -7 45 -21 40 -34 -13z"/>
<path d="M4542 5298 c-18 -18 -15 -41 4 -34 9 3 28 6 42 6 l27 1 -24 19 c-27
23 -33 24 -49 8z"/>
<path d="M2287 5220 c134 -128 238 -164 301 -102 46 44 67 122 33 122 -17 0
-56 -49 -56 -72 0 -18 -5 -22 -22 -20 -13 2 -23 -2 -23 -7 0 -6 7 -11 16 -11
8 0 12 -4 9 -10 -10 -16 -68 -13 -62 3 3 9 -10 17 -40 26 -27 7 -71 32 -107
61 -34 28 -66 54 -72 60 -7 5 -15 6 -18 3 -3 -4 -6 -1 -6 5 0 7 -6 12 -12 12
-7 0 19 -32 59 -70z"/>
<path d="M3050 5263 c0 -13 5 -23 10 -23 13 0 13 11 0 30 -8 12 -10 11 -10 -7z"/>
<path d="M3812 5233 c7 -18 18 -35 25 -37 20 -8 16 6 -12 39 l-24 30 11 -32z"/>
<path d="M2510 5234 c0 -8 5 -12 10 -9 6 4 8 11 5 16 -9 14 -15 11 -15 -7z"/>
<path d="M3980 5214 c0 -8 5 -12 10 -9 6 4 8 11 5 16 -9 14 -15 11 -15 -7z"/>
<path d="M4560 5180 c0 -5 9 -10 21 -10 11 0 17 5 14 10 -3 6 -13 10 -21 10
-8 0 -14 -4 -14 -10z"/>
<path d="M3043 5153 c-16 -6 -17 -29 -2 -38 10 -7 38 21 39 38 0 8 -18 8 -37
0z"/>
<path d="M3480 5015 c5 -11 20 -47 31 -80 25 -69 68 -115 136 -145 64 -28 69
-25 29 18 -20 20 -38 44 -41 52 -3 9 -15 22 -27 30 -27 18 -73 64 -111 111
-15 19 -23 25 -17 14z"/>
<path d="M3795 4940 c-10 -17 25 -50 52 -50 32 0 26 16 -14 41 -21 14 -33 16
-38 9z"/>
<path d="M3730 4936 c0 -14 35 -76 45 -80 10 -3 11 5 6 45 -1 8 -51 42 -51 35z"/>
<path d="M3882 4919 c29 -24 78 -33 118 -23 24 6 24 7 -12 19 -20 8 -59 16
-85 20 l-48 6 27 -22z"/>
<path d="M4138 4895 c-2 -3 -27 -7 -54 -10 -103 -11 -134 -17 -140 -27 -5 -8
-10 -5 -15 8 -7 17 -8 17 -8 2 -1 -21 -40 -24 -72 -8 -15 8 -19 7 -19 -5 0 -8
5 -15 10 -15 6 0 10 -6 10 -13 0 -16 40 -53 68 -61 10 -4 32 -1 48 5 16 6 54
14 84 18 53 6 55 7 58 39 2 18 9 32 16 32 9 0 12 -9 8 -27 -5 -25 -4 -27 11
-14 10 7 17 23 17 35 0 23 -14 49 -22 41z"/>
<path d="M3095 4853 c-49 -12 -35 -23 28 -23 73 0 123 -16 154 -49 18 -20 22
-20 59 -7 21 8 31 15 22 15 -10 1 -18 6 -18 12 0 5 -25 21 -55 35 -54 23 -134
30 -190 17z"/>
<path d="M4717 4558 c-4 -14 -10 -34 -13 -45 -5 -13 -2 -12 10 5 10 12 16 32
14 45 -3 21 -4 20 -11 -5z"/>
<path d="M4661 4460 c-18 -41 -19 -46 -4 -62 9 -10 13 -21 9 -25 -4 -4 -11 -1
-15 6 -7 11 -10 11 -17 0 -4 -7 -3 -14 3 -16 8 -3 8 -14 2 -35 -4 -17 -6 -35
-3 -39 3 -5 -7 -9 -23 -10 -26 -1 -26 -2 7 -10 39 -10 143 -9 159 1 6 3 -6 43
-32 100 -67 147 -62 143 -86 90z"/>
<path d="M4617 4336 c-4 -10 -7 -25 -6 -34 0 -11 4 -9 10 7 5 13 8 29 6 35 -2
5 -6 2 -10 -8z"/>
<path d="M4037 3923 c-25 -6 -11 -23 19 -23 15 0 24 5 22 12 -5 14 -17 17 -41
11z"/>
<path d="M4960 3920 c8 -5 26 -9 40 -9 l25 1 -25 8 c-14 4 -32 8 -40 9 -13 1
-13 0 0 -9z"/>
<path d="M6340 4924 c0 -89 -25 -139 -115 -234 -82 -86 -115 -127 -115 -144 0
-5 8 0 18 11 20 24 61 47 69 39 3 -3 19 11 35 31 16 20 41 45 56 54 75 49 123
120 122 182 -1 25 -24 60 -33 50 -4 -3 -7 0 -7 8 0 9 -7 24 -15 35 -13 17 -14
15 -15 -32z"/>
<path d="M6090 4366 c0 -17 26 -40 33 -29 7 12 -6 38 -20 41 -7 1 -13 -4 -13
-12z"/>
<path d="M5427 4154 c-8 -8 1 -24 14 -24 5 0 9 7 9 15 0 15 -12 20 -23 9z"/>
<path d="M6510 4141 c0 -6 8 -11 18 -11 9 0 34 -9 55 -20 40 -21 52 -10 15 14
-32 20 -88 30 -88 17z"/>
<path d="M6503 4027 c5 -16 64 -50 70 -40 3 5 -13 18 -35 30 -21 12 -38 17
-35 10z"/>
<path d="M6580 3971 c0 -9 34 -21 60 -21 8 0 2 7 -14 15 -32 17 -46 19 -46 6z"/>
<path d="M6004 3843 c-22 -4 -44 -41 -44 -71 0 -15 2 -15 10 -2 8 11 12 12 18
3 5 -8 13 4 24 33 8 24 15 43 14 43 0 -1 -11 -4 -22 -6z"/>
<path d="M5413 3347 c-18 -22 -22 -44 -10 -56 9 -9 7 -13 -8 -17 -14 -4 -32
-35 -63 -112 -23 -59 -42 -110 -42 -114 0 -5 45 -8 100 -8 l100 0 -7 33 c-3
17 -11 43 -18 57 -18 35 -38 166 -31 195 7 27 -7 41 -21 22z"/>
<path d="M5938 3343 c6 -2 18 -2 25 0 6 3 1 5 -13 5 -14 0 -19 -2 -12 -5z"/>
<path d="M5975 3310 c-4 -6 3 -10 14 -10 25 0 27 6 6 13 -8 4 -17 2 -20 -3z"/>
<path d="M6115 3170 c3 -5 10 -10 16 -10 5 0 9 5 9 10 0 6 -7 10 -16 10 -8 0
-12 -4 -9 -10z"/>
<path d="M6280 3152 c0 -5 7 -15 15 -22 8 -7 15 -8 15 -2 0 5 -7 15 -15 22 -8
7 -15 8 -15 2z"/>
<path d="M5745 3101 c-11 -5 -23 -7 -27 -4 -5 2 -8 2 -8 -1 0 -5 21 -57 26
-64 4 -5 63 62 64 71 0 9 -29 8 -55 -2z"/>
<path d="M6931 3064 c0 -11 3 -14 6 -6 3 7 2 16 -1 19 -3 4 -6 -2 -5 -13z"/>
<path d="M5861 2754 c0 -11 3 -14 6 -6 3 7 2 16 -1 19 -3 4 -6 -2 -5 -13z"/>
<path d="M4916 2169 c-28 -27 -47 -51 -43 -55 4 -4 14 -1 23 7 10 8 18 12 20
9 3 -5 39 30 41 40 1 3 5 13 9 23 12 31 0 26 -50 -24z"/>
<path d="M387 4923 c-4 -3 -7 -15 -7 -26 0 -16 3 -17 15 -7 8 7 15 19 15 26 0
15 -12 19 -23 7z"/>
<path d="M597 4893 c-4 -3 -7 -11 -7 -17 0 -6 5 -5 12 2 6 6 9 14 7 17 -3 3
-9 2 -12 -2z"/>
<path d="M2453 4610 c-79 -19 -128 -78 -147 -181 -43 -222 88 -378 272 -324
127 38 167 129 138 319 -12 82 -20 105 -44 135 -43 53 -129 73 -219 51z m77
-210 c0 -10 -4 -22 -10 -25 -6 -4 -10 7 -10 25 0 18 4 29 10 25 6 -3 10 -15
10 -25z m-38 -145 c-2 -14 -8 -23 -12 -20 -10 6 -1 45 10 45 4 0 5 -11 2 -25z"/>
<path d="M1080 4230 c0 -8 5 -22 10 -30 9 -13 10 -13 10 0 0 8 -5 22 -10 30
-9 13 -10 13 -10 0z"/>
<path d="M3890 3770 c-70 -14 -90 -27 -90 -59 0 -16 -5 -31 -12 -33 -14 -5 -3
-38 12 -38 6 0 14 9 18 19 4 11 10 20 14 21 36 8 50 17 73 52 15 22 25 41 23
42 -2 1 -19 -1 -38 -4z"/>
<path d="M3838 3373 c-2 -15 -4 -136 -3 -268 l1 -240 116 0 c113 0 117 1 159
30 113 80 130 270 34 382 -31 37 -32 41 -12 36 22 -6 22 -6 -2 16 -35 30 -114
51 -190 50 -55 -1 -60 -3 -31 -9 l35 -7 -37 -2 c-27 -1 -41 5 -51 19 -14 20
-14 20 -19 -7z"/>
<path d="M4770 3545 c0 -17 57 -55 81 -55 16 0 29 2 29 4 0 5 -98 56 -106 56
-2 0 -4 -2 -4 -5z"/>
<path d="M4515 3440 c-3 -5 1 -10 9 -10 9 0 16 5 16 10 0 6 -4 10 -9 10 -6 0
-13 -4 -16 -10z"/>
<path d="M2070 3216 c0 -2 9 -6 20 -9 11 -3 18 -1 14 4 -5 9 -34 13 -34 5z"/>
<path d="M2090 3166 c0 -9 5 -16 10 -16 6 0 10 4 10 9 0 6 -4 13 -10 16 -5 3
-10 -1 -10 -9z"/>
<path d="M520 2550 c0 -5 5 -10 11 -10 5 0 7 5 4 10 -3 6 -8 10 -11 10 -2 0
-4 -4 -4 -10z"/>
<path d="M5996 2403 c-27 -25 -29 -25 -42 -8 -13 17 -15 17 -48 -6 -30 -20
-33 -25 -18 -31 9 -4 28 -7 42 -7 27 -1 56 -28 62 -57 7 -37 33 -24 66 33 39
69 37 103 -6 103 -16 0 -39 -11 -56 -27z"/>
<path d="M5774 2308 c28 -66 39 -88 46 -88 6 0 30 75 30 92 0 2 -10 5 -22 5
-13 1 -24 7 -26 13 -2 5 -12 10 -23 10 -18 0 -18 -2 -5 -32z"/>
<path d="M5252 2180 c0 -19 2 -27 5 -17 2 9 2 25 0 35 -3 9 -5 1 -5 -18z"/>
<path d="M5231 1934 c0 -11 3 -14 6 -6 3 7 2 16 -1 19 -3 4 -6 -2 -5 -13z"/>
<path d="M5003 1726 c4 -10 7 -26 7 -37 0 -10 4 -19 9 -19 15 0 7 63 -8 68
-10 3 -12 0 -8 -12z"/>
<path d="M5420 1632 c0 -5 7 -9 15 -9 8 0 15 4 15 9 0 4 -7 8 -15 8 -8 0 -15
-4 -15 -8z"/>
<path d="M5365 1570 c-13 -6 -15 -9 -5 -9 8 0 22 4 30 9 18 12 2 12 -25 0z"/>
<path d="M3931 1904 c0 -11 3 -14 6 -6 3 7 2 16 -1 19 -3 4 -6 -2 -5 -13z"/>
</g>
</svg>
