<svg width="720" height="972" viewBox="0 0 720 972" fill="none" xmlns="http://www.w3.org/2000/svg">
<g clip-path="url(#clip0_3076_4517)">
<mask id="mask0_3076_4517" style="mask-type:alpha" maskUnits="userSpaceOnUse" x="-677" y="-328" width="2199" height="1463">
<g clip-path="url(#paint0_diamond_3076_4517_clip_path)" data-figma-skip-parse="true"><g transform="matrix(0 0.79622 -1.85186 0 422.609 305.058)"><rect x="0" y="0" width="1043.4" height="593.953" fill="url(#paint0_diamond_3076_4517)" opacity="1" shape-rendering="crispEdges"/><rect x="0" y="0" width="1043.4" height="593.953" transform="scale(1 -1)" fill="url(#paint0_diamond_3076_4517)" opacity="1" shape-rendering="crispEdges"/><rect x="0" y="0" width="1043.4" height="593.953" transform="scale(-1 1)" fill="url(#paint0_diamond_3076_4517)" opacity="1" shape-rendering="crispEdges"/><rect x="0" y="0" width="1043.4" height="593.953" transform="scale(-1)" fill="url(#paint0_diamond_3076_4517)" opacity="1" shape-rendering="crispEdges"/></g></g><rect x="-676.174" y="-327.521" width="2197.57" height="1462.23" data-figma-gradient-fill="{&#34;type&#34;:&#34;GRADIENT_DIAMOND&#34;,&#34;stops&#34;:[{&#34;color&#34;:{&#34;r&#34;:1.0,&#34;g&#34;:1.0,&#34;b&#34;:1.0,&#34;a&#34;:1.0},&#34;position&#34;:0.0},{&#34;color&#34;:{&#34;r&#34;:0.85098040103912354,&#34;g&#34;:0.85098040103912354,&#34;b&#34;:0.85098040103912354,&#34;a&#34;:0.0},&#34;position&#34;:1.0}],&#34;stopsVar&#34;:[],&#34;transform&#34;:{&#34;m00&#34;:-8.5641731336835725e-13,&#34;m01&#34;:-3703.7145996093750,&#34;m02&#34;:2274.4660644531250,&#34;m10&#34;:1592.4405517578125,&#34;m11&#34;:3.4228457741758422e-12,&#34;m12&#34;:-491.16195678710938},&#34;opacity&#34;:1.0,&#34;blendMode&#34;:&#34;NORMAL&#34;,&#34;visible&#34;:true}"/>
</mask>
<g mask="url(#mask0_3076_4517)">
<g opacity="0.9">
<circle cx="671.139" cy="592.419" r="1.47903" fill="white" fill-opacity="0.5"/>
<circle cx="154.88" cy="435.162" r="1.83012" fill="white" fill-opacity="0.3"/>
<circle cx="14.3038" cy="484.718" r="1.35168" fill="white" fill-opacity="0.6"/>
<circle cx="420.774" cy="884.935" r="1.2908" fill="white" fill-opacity="0.4"/>
<circle cx="315.893" cy="720.009" r="1.47962" fill="white" fill-opacity="0.4"/>
<circle cx="5.51272" cy="357.091" r="1.3135" fill="white" fill-opacity="0.6"/>
<circle cx="39.7" cy="812.824" r="1.73023" fill="white" fill-opacity="0.4"/>
<circle cx="17.0944" cy="915.305" r="1.64129" fill="white" fill-opacity="0.3"/>
<circle cx="283.35" cy="212.135" r="1.45901" fill="white" fill-opacity="0.6"/>
<circle cx="28.3233" cy="107.214" r="1.61037" fill="white" fill-opacity="0.5"/>
<circle cx="384.56" cy="618.557" r="1.34787" fill="white" fill-opacity="0.5"/>
<circle cx="550.838" cy="568.435" r="1.26143" fill="white" fill-opacity="0.3"/>
<circle cx="485.997" cy="815.063" r="1.46685" fill="white" fill-opacity="0.5"/>
<circle cx="162.03" cy="897.627" r="1.47333" fill="white" fill-opacity="0.3"/>
<circle cx="13.0631" cy="910.022" r="1.35996" fill="white" fill-opacity="0.5"/>
<circle cx="148.268" cy="92.0664" r="1.4726" fill="white" fill-opacity="0.5"/>
<circle cx="65.8847" cy="806.485" r="1.64549" fill="white" fill-opacity="0.3"/>
<circle cx="502.661" cy="706.636" r="1.86524" fill="white" fill-opacity="0.4"/>
<circle cx="556.084" cy="215.933" r="1.50333" fill="white" fill-opacity="0.6"/>
<circle cx="269.624" cy="837.604" r="1.49276" fill="white" fill-opacity="0.4"/>
<circle cx="12.3046" cy="527.747" r="1.85144" fill="white" fill-opacity="0.5"/>
<circle cx="492.444" cy="931.585" r="1.65842" fill="white" fill-opacity="0.6"/>
<circle cx="663.754" cy="831.455" r="1.59867" fill="white" fill-opacity="0.3"/>
<circle cx="260.84" cy="243.414" r="1.46624" fill="white" fill-opacity="0.3"/>
<circle cx="4.48621" cy="60.8622" r="1.5409" fill="white" fill-opacity="0.4"/>
<circle cx="483.487" cy="203.38" r="1.45775" fill="white" fill-opacity="0.5"/>
<circle cx="282.257" cy="322.369" r="1.61693" fill="white" fill-opacity="0.4"/>
<circle cx="238.697" cy="827.942" r="1.83767" fill="white" fill-opacity="0.6"/>
<circle cx="285.708" cy="950.006" r="1.31639" fill="white" fill-opacity="0.4"/>
<circle cx="320.886" cy="938.902" r="1.46989" fill="white" fill-opacity="0.5"/>
<circle cx="437.266" cy="165.912" r="1.51752" fill="white" fill-opacity="0.6"/>
<circle cx="102.304" cy="757.846" r="1.7893" fill="white" fill-opacity="0.4"/>
<circle cx="238.674" cy="920.483" r="1.81484" fill="white" fill-opacity="0.4"/>
<circle cx="161.883" cy="663.568" r="1.3267" fill="white" fill-opacity="0.4"/>
<circle cx="165.82" cy="687.52" r="1.51251" fill="white" fill-opacity="0.3"/>
<circle cx="711.111" cy="850.045" r="1.42455" fill="white" fill-opacity="0.5"/>
<circle cx="638.94" cy="537.704" r="1.80196" fill="white" fill-opacity="0.6"/>
<circle cx="337.078" cy="677.398" r="1.39781" fill="white" fill-opacity="0.3"/>
<circle cx="92.3214" cy="739.108" r="1.81556" fill="white" fill-opacity="0.6"/>
<circle cx="397.192" cy="482.337" r="1.47199" fill="white" fill-opacity="0.3"/>
<circle cx="15.4764" cy="893.673" r="1.27233" fill="white" fill-opacity="0.6"/>
<circle cx="193.298" cy="850.089" r="1.46915" fill="white" fill-opacity="0.5"/>
<circle cx="64.6877" cy="387.498" r="1.70034" fill="white" fill-opacity="0.5"/>
<circle cx="109.813" cy="497.67" r="1.79374" fill="white" fill-opacity="0.4"/>
<circle cx="489.982" cy="696.461" r="1.69749" fill="white" fill-opacity="0.3"/>
<circle cx="77.0542" cy="18.3472" r="1.55517" fill="white" fill-opacity="0.4"/>
<circle cx="166.007" cy="186.108" r="1.69973" fill="white" fill-opacity="0.4"/>
<circle cx="652.713" cy="530.214" r="1.81534" fill="white" fill-opacity="0.5"/>
<circle cx="36.0368" cy="84.906" r="1.81712" fill="white" fill-opacity="0.6"/>
<circle cx="234.473" cy="573.547" r="1.3679" fill="white" fill-opacity="0.3"/>
<circle cx="515.101" cy="122.413" r="1.79879" fill="white" fill-opacity="0.6"/>
<circle cx="255.879" cy="561.177" r="1.50699" fill="white" fill-opacity="0.5"/>
<circle cx="573.811" cy="472.576" r="1.7196" fill="white" fill-opacity="0.3"/>
<circle cx="484.939" cy="829.015" r="1.66013" fill="white" fill-opacity="0.4"/>
<circle cx="604.799" cy="159.574" r="1.43341" fill="white" fill-opacity="0.4"/>
<circle cx="276.08" cy="457.542" r="1.69469" fill="white" fill-opacity="0.4"/>
<circle cx="119.64" cy="447.453" r="1.61275" fill="white" fill-opacity="0.4"/>
<circle cx="577.641" cy="796.627" r="1.7949" fill="white" fill-opacity="0.5"/>
<circle cx="645.989" cy="814.941" r="1.34518" fill="white" fill-opacity="0.5"/>
<circle cx="518.484" cy="179.584" r="1.42944" fill="white" fill-opacity="0.6"/>
<circle cx="340.801" cy="34.423" r="1.37025" fill="white" fill-opacity="0.4"/>
<circle cx="524.786" cy="529.875" r="1.47691" fill="white" fill-opacity="0.6"/>
<circle cx="477.564" cy="661.526" r="1.78895" fill="white" fill-opacity="0.6"/>
<circle cx="18.2112" cy="463.606" r="1.50422" fill="white" fill-opacity="0.5"/>
<circle cx="690.123" cy="133.572" r="1.70034" fill="white" fill-opacity="0.5"/>
<circle cx="254.817" cy="262.408" r="1.69719" fill="white" fill-opacity="0.5"/>
<circle cx="331.291" cy="121.229" r="1.86609" fill="white" fill-opacity="0.5"/>
<circle cx="364.733" cy="212.212" r="1.53629" fill="white" fill-opacity="0.6"/>
<circle cx="241.103" cy="536.392" r="1.7395" fill="white" fill-opacity="0.4"/>
<circle cx="219.691" cy="120.958" r="1.595" fill="white" fill-opacity="0.5"/>
<circle cx="118.611" cy="963.033" r="1.83494" fill="white" fill-opacity="0.5"/>
<circle cx="288.698" cy="897.957" r="1.8037" fill="white" fill-opacity="0.6"/>
<circle cx="347.08" cy="714.921" r="1.39508" fill="white" fill-opacity="0.5"/>
<circle cx="58.0308" cy="214.475" r="1.29741" fill="white" fill-opacity="0.4"/>
<circle cx="417.209" cy="563.645" r="1.47328" fill="white" fill-opacity="0.6"/>
<circle cx="466.184" cy="869.047" r="1.66396" fill="white" fill-opacity="0.3"/>
<circle cx="294.497" cy="947.539" r="1.35148" fill="white" fill-opacity="0.4"/>
<circle cx="383.646" cy="66.0115" r="1.68629" fill="white" fill-opacity="0.6"/>
<circle cx="84.4929" cy="2.02118" r="1.49091" fill="white" fill-opacity="0.3"/>
<circle cx="206.13" cy="126.161" r="1.7925" fill="white" fill-opacity="0.5"/>
<circle cx="691.001" cy="867.46" r="1.32712" fill="white" fill-opacity="0.6"/>
<circle cx="418.279" cy="550.957" r="1.2957" fill="white" fill-opacity="0.3"/>
<circle cx="205.914" cy="662.566" r="1.5761" fill="white" fill-opacity="0.4"/>
<circle cx="116.006" cy="642.708" r="1.73197" fill="white" fill-opacity="0.6"/>
<circle cx="612.218" cy="121.962" r="1.34783" fill="white" fill-opacity="0.5"/>
<circle cx="380.979" cy="137.146" r="1.5205" fill="white" fill-opacity="0.5"/>
<circle cx="-1.64271" cy="351.19" r="1.66686" fill="white" fill-opacity="0.4"/>
<circle cx="533.36" cy="632.265" r="1.29601" fill="white" fill-opacity="0.4"/>
<circle cx="568.626" cy="933.966" r="1.53834" fill="white" fill-opacity="0.4"/>
<circle cx="565.091" cy="291.236" r="1.75432" fill="white" fill-opacity="0.4"/>
<circle cx="712.274" cy="3.11899" r="1.33677" fill="white" fill-opacity="0.5"/>
<circle cx="124.663" cy="158.524" r="1.63546" fill="white" fill-opacity="0.3"/>
<circle cx="165.607" cy="19.3419" r="1.29894" fill="white" fill-opacity="0.3"/>
<circle cx="410.796" cy="851.188" r="1.31542" fill="white" fill-opacity="0.6"/>
<circle cx="256.106" cy="161.124" r="1.73364" fill="white" fill-opacity="0.5"/>
<circle cx="380.808" cy="698.614" r="1.34857" fill="white" fill-opacity="0.5"/>
<circle cx="417.337" cy="678.852" r="1.60182" fill="white" fill-opacity="0.4"/>
<circle cx="264.384" cy="11.7931" r="1.25505" fill="white" fill-opacity="0.6"/>
<circle cx="112.152" cy="232.321" r="1.63023" fill="white" fill-opacity="0.3"/>
<circle cx="519.857" cy="341.069" r="1.55232" fill="white" fill-opacity="0.5"/>
<circle cx="456.067" cy="707.58" r="1.55855" fill="white" fill-opacity="0.4"/>
<circle cx="268.341" cy="214.64" r="1.46247" fill="white" fill-opacity="0.5"/>
</g>
<g opacity="0.1">
<g clip-path="url(#clip1_3076_4517)">
<path d="M44.1846 -163.062V1660.47" stroke="white" stroke-width="1.38295"/>
<path d="M132.693 -163.062V1660.47" stroke="white" stroke-width="1.38295"/>
<path d="M221.202 -163.062V1660.47" stroke="white" stroke-width="1.38295"/>
<path d="M309.71 -163.062V1660.47" stroke="white" stroke-width="1.38295"/>
<path d="M398.219 -163.062V1660.47" stroke="white" stroke-width="1.38295"/>
<path d="M486.728 -163.062V1660.47" stroke="white" stroke-width="1.38295"/>
<path d="M575.236 -163.062V1660.47" stroke="white" stroke-width="1.38295"/>
<path d="M663.744 -163.062V1660.47" stroke="white" stroke-width="1.38295"/>
</g>
<g clip-path="url(#clip2_3076_4517)">
<path d="M-663.884 13.9551L1973.58 13.9551" stroke="white" stroke-width="1.38295"/>
<path d="M-663.884 102.463L1973.58 102.463" stroke="white" stroke-width="1.38295"/>
<path d="M-663.884 190.972L1973.58 190.972" stroke="white" stroke-width="1.38295"/>
<path d="M-663.884 279.48L1973.58 279.48" stroke="white" stroke-width="1.38295"/>
<path d="M-663.884 367.989L1973.58 367.989" stroke="white" stroke-width="1.38295"/>
<path d="M-663.884 456.497L1973.58 456.497" stroke="white" stroke-width="1.38295"/>
<path d="M-663.884 545.006L1973.58 545.006" stroke="white" stroke-width="1.38295"/>
<path d="M-663.884 633.515L1973.58 633.515" stroke="white" stroke-width="1.38295"/>
<path d="M-663.884 722.023L1973.58 722.023" stroke="white" stroke-width="1.38295"/>
<path d="M-663.884 810.531L1973.58 810.531" stroke="white" stroke-width="1.38295"/>
<path d="M-663.884 899.04L1973.58 899.04" stroke="white" stroke-width="1.38295"/>
</g>
</g>
</g>
</g>
<defs>
<clipPath id="paint0_diamond_3076_4517_clip_path"><rect x="-676.174" y="-327.521" width="2197.57" height="1462.23"/></clipPath><linearGradient id="paint0_diamond_3076_4517" x1="0" y1="0" x2="500" y2="500" gradientUnits="userSpaceOnUse">
<stop stop-color="white"/>
<stop offset="1" stop-color="#D9D9D9" stop-opacity="0"/>
</linearGradient>
<clipPath id="clip0_3076_4517">
<rect width="720" height="972" fill="white"/>
</clipPath>
<clipPath id="clip1_3076_4517">
<rect width="2637.47" height="1704.89" fill="white" transform="translate(-663.884 -163.062)"/>
</clipPath>
<clipPath id="clip2_3076_4517">
<rect width="2637.47" height="1704.89" fill="white" transform="translate(-663.884 -163.062)"/>
</clipPath>
</defs>
</svg>
